<?xml version="1.0" standalone="no"?>
<!DOCTYPE svg PUBLIC "-//W3C//DTD SVG 20010904//EN"
 "http://www.w3.org/TR/2001/REC-SVG-20010904/DTD/svg10.dtd">
<svg version="1.0" xmlns="http://www.w3.org/2000/svg"
 width="499.000000pt" height="499.000000pt" viewBox="0 0 499.000000 499.000000"
 preserveAspectRatio="xMidYMid meet">
<metadata>
Created by potrace 1.11, written by Peter Selinger 2001-2013
</metadata>
<g transform="translate(0.000000,499.000000) scale(0.100000,-0.100000)"
fill="#000000" stroke="none">
<path d="M2185 4965 c-814 -99 -1538 -605 -1908 -1333 -193 -378 -272 -708
-272 -1137 0 -295 31 -503 111 -756 122 -386 319 -706 618 -1005 128 -128 352
-314 378 -314 5 0 8 221 8 490 l0 490 -430 0 -430 0 0 355 0 355 430 0 430 0
0 805 0 805 470 0 470 0 0 -805 0 -805 174 0 174 0 843 805 842 805 278 0
c154 0 279 3 279 8 0 15 -95 160 -176 268 -401 535 -1020 891 -1690 969 -156
18 -446 18 -599 0z"/>
<path d="M4075 2638 c-412 -379 -751 -694 -753 -698 -3 -8 983 -1122 998
-1128 8 -3 84 83 151 173 269 356 428 744 490 1195 20 142 18 517 -4 660 -28
181 -107 491 -125 489 -4 0 -344 -311 -757 -691z"/>
<path d="M2060 721 l0 -679 28 -6 c147 -30 506 -39 687 -17 166 20 339 59 493
110 166 55 354 139 350 156 -2 6 -214 259 -473 562 l-470 552 -307 0 -308 1 0
-679z"/>
</g>
</svg>
